<?xml version="1.0" standalone="no"?>
<!DOCTYPE svg PUBLIC "-//W3C//DTD SVG 20010904//EN"
 "http://www.w3.org/TR/2001/REC-SVG-20010904/DTD/svg10.dtd">
<svg version="1.0" xmlns="http://www.w3.org/2000/svg"
 width="828.000000pt" height="828.000000pt" viewBox="0 0 828.000000 828.000000"
 preserveAspectRatio="xMidYMid meet">

<g transform="translate(0.000000,828.000000) scale(0.100000,-0.100000)"
fill="#000000" stroke="none">
<path d="M0 4140 l0 -4140 4140 0 4140 0 0 4140 0 4140 -4140 0 -4140 0 0
-4140z m4204 2594 c21 -8 21 -43 0 -51 -8 -3 -23 1 -31 10 -13 13 -14 19 -3
31 14 18 13 18 34 10z m366 -49 c18 -22 8 -50 -19 -50 -32 0 -49 28 -32 49 17
20 35 20 51 1z m-900 -39 c0 -34 55 -54 82 -29 16 14 22 14 43 3 27 -15 31
-30 13 -48 -20 -20 10 -65 39 -57 18 4 26 -1 38 -24 20 -39 19 -48 -5 -54 -27
-7 -27 -51 1 -71 16 -11 19 -20 14 -38 -11 -35 -23 -46 -48 -41 -31 6 -57 -38
-36 -63 12 -14 10 -19 -10 -35 -28 -22 -47 -24 -54 -5 -9 23 -71 5 -75 -22 -3
-18 -10 -22 -43 -22 -32 0 -39 4 -39 19 0 12 -11 23 -32 30 -28 10 -35 9 -45
-5 -11 -16 -14 -16 -38 0 -22 14 -25 22 -20 46 9 39 -8 65 -41 65 -21 0 -29 6
-37 28 -8 24 -6 31 12 43 28 20 28 64 1 71 -23 6 -24 11 -10 48 8 22 15 26 36
22 34 -6 61 31 44 63 -9 17 -7 24 12 40 20 16 25 17 39 4 24 -22 79 -8 79 21
0 29 7 35 47 35 28 0 33 -3 33 -24z m1468 -111 c2 -2 6 -31 9 -64 l6 -61 54
-17 54 -17 41 41 41 41 56 -35 c31 -20 58 -38 60 -40 3 -2 -5 -27 -17 -56 -28
-68 -28 -75 13 -120 l34 -39 52 11 c29 6 55 8 59 4 4 -5 21 -34 38 -65 l31
-57 -50 -43 -50 -43 7 -56 6 -56 61 -17 60 -17 -7 -76 c-3 -42 -8 -79 -11 -82
-3 -2 -32 -7 -65 -9 l-60 -4 -17 -54 -17 -54 48 -49 47 -48 -46 -61 -46 -61
-54 26 -54 27 -38 -31 -38 -31 3 -71 2 -72 -55 -25 c-31 -13 -62 -24 -69 -24
-7 0 -27 23 -45 51 -22 36 -36 49 -47 45 -9 -3 -32 -6 -53 -6 -37 0 -37 -1
-57 -62 l-20 -63 -65 3 c-35 2 -68 8 -72 12 -5 4 -12 32 -15 60 l-7 53 -58 20
-57 21 -40 -39 -40 -39 -55 39 c-31 21 -58 41 -60 46 -3 4 6 33 20 64 l26 56
-33 45 c-32 44 -34 46 -73 40 -22 -3 -49 -8 -60 -11 -17 -5 -26 5 -53 61 l-34
68 28 20 c76 55 77 57 68 116 l-9 55 -58 15 -57 14 0 61 c0 101 3 105 70 105
l57 0 21 57 21 57 -40 48 -40 47 37 56 c20 30 41 55 46 55 4 0 28 -9 53 -21
l45 -21 48 37 49 37 -8 46 c-13 79 -13 79 47 106 31 14 62 26 69 26 8 0 23
-15 34 -33 38 -62 51 -68 106 -54 l49 12 14 59 15 58 71 -7 c39 -4 73 -8 74
-10z m-830 -13 c2 -7 -5 -12 -17 -12 -14 0 -19 5 -14 15 6 17 25 15 31 -3z
m1686 -161 c35 -39 4 -90 -47 -77 -35 8 -46 49 -22 76 23 25 47 25 69 1z
m-3062 -48 c25 -22 24 -79 -1 -93 -46 -24 -91 0 -91 47 0 54 54 81 92 46z
m1219 -43 c10 0 19 -4 19 -10 0 -12 -67 -13 -74 -1 -8 12 6 22 22 16 7 -3 22
-5 33 -5z m-161 -10 c0 -5 -7 -10 -16 -10 -8 0 -12 5 -9 10 3 6 10 10 16 10 5
0 9 -4 9 -10z m80 0 c0 -5 -11 -10 -25 -10 -14 0 -25 5 -25 10 0 6 11 10 25
10 14 0 25 -4 25 -10z m195 0 c4 -6 -8 -10 -29 -10 -20 0 -36 5 -36 10 0 6 13
10 29 10 17 0 33 -4 36 -10z m71 0 c8 0 14 -4 14 -10 0 -5 -13 -10 -30 -10
-21 0 -30 5 -30 16 0 11 5 14 16 10 9 -3 22 -6 30 -6z m-1198 -57 c-5 -26 -38
-29 -38 -4 0 15 6 21 21 21 14 0 19 -5 17 -17z m272 -62 c0 -9 -24 -21 -41
-21 -16 0 -10 18 9 23 28 8 32 7 32 -2z m-70 -31 c0 -5 -9 -10 -21 -10 -11 0
-17 5 -14 10 3 6 13 10 21 10 8 0 14 -4 14 -10z m-56 -25 c-6 -16 -34 -21 -34
-7 0 13 11 22 26 22 8 0 11 -6 8 -15z m-54 -15 c0 -12 -55 -41 -64 -33 -12 12
-6 21 22 31 36 14 42 14 42 2z m770 -30 c24 -24 25 -38 3 -62 -19 -21 -66 -24
-82 -4 -8 9 -26 12 -61 8 -60 -6 -69 13 -9 21 25 3 49 15 64 31 29 31 58 33
85 6z m-860 -13 c0 -13 -58 -43 -67 -34 -10 10 8 26 22 20 9 -3 15 1 15 11 0
9 7 16 15 16 8 0 15 -6 15 -13z m1110 -34 c0 -13 -10 -15 -61 -9 -34 3 -82 6
-105 6 -24 0 -44 4 -44 9 0 14 23 16 121 13 73 -3 89 -6 89 -19z m1695 -3 c0
-22 -39 -19 -43 3 -3 15 1 18 20 15 12 -2 23 -10 23 -18z m-2890 -10 c7 -12
-42 -36 -53 -26 -4 4 2 14 12 22 23 17 33 18 41 4z m-710 -41 c11 -34 -4 -59
-34 -59 -36 0 -55 22 -47 54 10 38 70 42 81 5z m1335 21 c0 -5 -9 -10 -19 -10
-23 0 -161 -48 -281 -97 -255 -105 -509 -291 -693 -508 -20 -23 -28 -27 -37
-18 -23 22 203 243 373 362 162 115 424 233 597 269 61 13 60 13 60 2z m-694
-29 c-10 -16 -36 -13 -36 3 0 17 21 27 34 16 4 -5 5 -13 2 -19z m-46 -20 c0
-9 -61 -51 -74 -51 -3 0 -6 7 -6 15 0 8 5 15 11 15 6 0 17 7 25 15 17 17 44
20 44 6z m1284 -47 c9 -3 16 -11 16 -17 0 -7 -37 -8 -114 -3 -120 7 -290 -5
-411 -30 -234 -48 -508 -177 -695 -329 -74 -60 -220 -206 -253 -253 -22 -32
-47 -42 -47 -19 0 20 134 170 222 247 231 202 540 347 840 394 93 14 412 21
442 10z m-1374 -12 c0 -14 -23 -32 -42 -32 -21 0 -23 11 -6 28 13 13 48 16 48
4z m-75 -53 c4 -6 -2 -13 -14 -16 -12 -3 -21 -12 -21 -19 0 -8 -7 -14 -15 -14
-8 0 -15 7 -15 15 0 8 6 15 14 15 8 0 16 7 20 15 6 17 22 20 31 4z m-75 -63
c0 -7 -6 -19 -14 -25 -19 -16 -32 5 -16 24 16 19 30 19 30 1z m3458 -12 c31
-20 53 -75 46 -112 -3 -16 -16 -42 -29 -58 -21 -26 -29 -29 -79 -29 -46 0 -60
4 -81 26 -34 33 -42 86 -20 132 29 63 102 81 163 41z m-3505 -39 c-6 -18 -19
-19 -29 -4 -7 12 15 31 28 23 4 -3 5 -11 1 -19z m1367 5 c0 -5 -13 -10 -30
-10 -16 0 -30 5 -30 10 0 6 14 10 30 10 17 0 30 -4 30 -10z m100 0 c0 -5 -13
-10 -30 -10 -16 0 -30 5 -30 10 0 6 14 10 30 10 17 0 30 -4 30 -10z m-205 -10
c-3 -5 -17 -10 -31 -10 -13 0 -24 5 -24 10 0 6 14 10 31 10 17 0 28 -4 24 -10z
m295 0 c0 -5 -9 -10 -19 -10 -11 0 -23 5 -26 10 -4 6 5 10 19 10 14 0 26 -4
26 -10z m-1802 -27 c3 -19 -1 -23 -22 -23 -21 0 -26 5 -26 26 0 21 4 25 23 22
14 -2 23 -11 25 -25z m1402 18 c0 -11 -40 -22 -52 -15 -5 3 -6 10 -3 15 8 12
55 12 55 0z m-1194 -12 c8 -14 -18 -31 -30 -19 -9 9 0 30 14 30 5 0 12 -5 16
-11z m1092 -11 c-5 -15 -58 -24 -58 -9 0 11 17 19 43 20 11 1 17 -4 15 -11z
m-98 -6 c0 -13 -12 -22 -22 -16 -10 6 -1 24 13 24 5 0 9 -4 9 -8z m-1040 -43
c-12 -22 -25 -24 -36 -7 -8 12 24 40 38 32 4 -3 3 -14 -2 -25z m988 -2 c6 -5
12 -19 12 -30 0 -11 -3 -17 -7 -13 -5 4 -8 13 -8 19 0 7 -10 13 -22 15 -30 4
-29 -3 3 -33 30 -28 21 -34 -13 -10 -13 9 -24 11 -28 6 -3 -5 -1 -12 5 -16 5
-3 10 -10 10 -14 0 -13 -65 -41 -94 -41 -24 0 -26 3 -21 32 8 42 19 52 13 12
-4 -28 -2 -31 20 -28 35 4 38 11 14 37 -12 13 -19 26 -16 30 8 8 28 -12 37
-36 9 -24 27 -13 20 13 -3 11 0 20 6 20 5 0 8 7 5 15 -14 36 28 50 64 22z m72
2 c0 -4 -7 -6 -15 -3 -10 4 -15 0 -15 -15 0 -12 4 -21 9 -21 5 0 7 -9 4 -20
-5 -19 -6 -19 -19 6 -17 33 -18 61 -1 67 15 5 37 -3 37 -14z m-160 -21 c0 -17
-2 -18 -15 -4 -8 8 -15 19 -15 25 0 6 7 8 15 5 8 -4 15 -15 15 -26z m-939 -11
c-13 -13 -26 -3 -16 12 3 6 11 8 17 5 6 -4 6 -10 -1 -17z m879 7 c0 -8 -4 -12
-10 -9 -5 3 -10 10 -10 16 0 5 5 9 10 9 6 0 10 -7 10 -16z m-38 -39 c14 -32
-5 -57 -41 -53 -34 4 -38 31 -10 57 29 27 37 26 51 -4z m-862 -1 c0 -9 -5 -14
-12 -12 -18 6 -21 28 -4 28 9 0 16 -7 16 -16z m-30 -28 c0 -16 -18 -31 -27
-22 -8 8 5 36 17 36 5 0 10 -6 10 -14z m-495 -16 c27 -30 10 -74 -30 -78 -47
-6 -73 48 -39 82 21 22 47 20 69 -4z m1295 -19 c0 -8 -43 -41 -55 -41 -12 0
-4 24 13 36 20 15 42 18 42 5z m970 -12 c3 -5 14 -67 24 -140 15 -100 23 -132
35 -136 47 -15 141 -66 136 -73 -19 -30 87 -147 168 -188 69 -35 182 -52 190
-28 2 6 23 -9 45 -34 l42 -44 78 16 c42 10 107 26 143 36 l66 20 41 -84 c23
-47 42 -90 42 -98 0 -23 -76 -66 -118 -66 -48 0 -65 -16 -138 -125 -55 -83
-56 -84 -49 -138 7 -52 5 -57 -24 -87 -17 -18 -31 -43 -31 -56 0 -47 -19 -32
-30 23 -15 79 -48 178 -78 238 -83 167 -238 311 -410 381 -117 47 -179 58
-317 58 -114 -1 -140 -4 -215 -29 -231 -75 -393 -212 -498 -420 -62 -124 -77
-194 -77 -360 0 -98 5 -167 14 -200 78 -279 279 -487 556 -575 108 -34 303
-40 415 -11 111 28 218 79 308 148 161 124 255 281 311 523 10 44 10 44 5 -15
-9 -100 -6 -247 5 -305 6 -30 12 -64 14 -75 16 -86 93 -202 163 -245 17 -11
43 -21 58 -22 14 -1 26 -6 26 -11 0 -4 5 -5 12 -1 7 4 -14 -24 -47 -64 -32
-40 -62 -72 -66 -72 -4 0 -45 16 -91 36 -45 20 -106 44 -134 54 l-51 18 -68
-50 -67 -50 8 -96 c5 -53 9 -121 9 -150 l0 -53 -94 -36 c-57 -21 -96 -31 -100
-25 -3 5 -42 60 -86 121 -65 90 -84 110 -100 106 -11 -3 -50 -8 -87 -11 l-66
-7 -46 -98 c-26 -54 -53 -114 -62 -134 -14 -35 -15 -36 -62 -29 -26 3 -72 9
-102 12 l-55 7 -12 105 c-25 208 -13 182 -101 218 -42 18 -81 32 -86 32 -11 0
-89 -49 -179 -113 l-69 -48 -46 43 c-26 24 -59 53 -74 65 -16 11 -28 25 -28
29 0 4 20 59 45 121 25 61 45 120 45 129 0 21 -87 129 -117 145 -17 9 -38 9
-98 -3 l-75 -15 -20 32 c-21 34 -57 55 -95 55 -14 0 -25 5 -25 10 0 6 -8 28
-18 49 l-18 37 104 83 104 83 -6 67 c-12 124 -6 117 -148 174 l-127 52 6 60
c3 33 8 82 12 109 l6 50 132 21 c73 12 134 23 137 26 4 5 56 128 62 149 2 8
-35 66 -85 129 l-89 114 59 82 59 83 126 -44 c69 -24 133 -44 142 -44 9 1 44
25 76 55 l60 54 -27 143 c-15 78 -25 142 -24 143 1 1 44 20 94 42 l93 42 86
-99 c47 -54 93 -101 102 -105 9 -3 49 2 89 12 l73 18 41 115 c23 63 46 126 51
139 8 23 9 23 111 16 56 -4 104 -11 107 -16z m-1810 -3 c0 -18 -16 -29 -30
-21 -13 8 -1 35 16 35 8 0 14 -6 14 -14z m3450 -16 c0 -5 -4 -10 -10 -10 -5 0
-10 5 -10 10 0 6 5 10 10 10 6 0 10 -4 10 -10z m625 -10 c28 -31 24 -79 -9
-107 -32 -27 -53 -29 -84 -7 -32 22 -44 58 -31 91 13 35 26 43 70 43 23 0 42
-7 54 -20z m-4105 -16 c0 -3 -9 -19 -21 -35 -34 -48 -55 -33 -23 16 14 22 44
35 44 19z m775 -14 c-18 -20 -45 -27 -45 -12 0 15 24 32 44 32 18 0 19 -1 1
-20z m2745 1 c0 -14 -18 -23 -30 -16 -6 4 -8 11 -5 16 8 12 35 12 35 0z
m-2828 -63 c-12 -12 -25 -17 -32 -13 -9 6 -6 13 11 26 30 23 47 13 21 -13z
m2868 -10 c0 -14 -15 -8 -27 11 -15 24 -3 38 14 15 7 -10 13 -21 13 -26z
m-3622 -4 c-3 -19 -34 -41 -43 -32 -9 9 18 48 33 48 7 0 12 -7 10 -16z m3652
-35 c7 -11 9 -23 6 -26 -8 -9 -36 17 -36 33 0 21 18 17 30 -7z m-2960 2 c0
-13 -61 -63 -68 -56 -4 3 0 10 8 15 8 6 12 10 8 10 -4 0 0 9 9 20 18 21 43 27
43 11z m-730 -23 c0 -7 -6 -21 -14 -30 -18 -25 -39 -3 -23 23 13 21 37 25 37
7z m3555 -47 c-8 -7 -45 36 -45 53 0 6 12 -2 26 -18 14 -15 22 -31 19 -35z
m166 4 c0 -6 7 -14 15 -18 8 -4 14 -17 14 -28 0 -26 -15 -17 -34 23 -19 37
-19 41 -5 36 6 -2 10 -8 10 -13z m-3761 -24 c0 -11 -5 -23 -11 -27 -6 -3 -17
-22 -25 -40 -14 -34 -28 -42 -39 -25 -3 5 3 17 12 27 10 9 18 22 19 28 5 48
44 80 44 37z m3940 -18 c0 -22 -30 -27 -48 -9 -16 16 -16 18 2 31 21 16 46 4
46 -22z m-3270 9 c0 -4 -7 -18 -16 -31 -12 -16 -19 -20 -27 -12 -7 7 -5 17 8
31 18 20 35 26 35 12z m-310 -48 c0 -3 -23 -44 -50 -89 -86 -143 -181 -385
-206 -527 -6 -37 -34 -55 -34 -22 0 53 79 300 130 409 53 111 129 235 145 235
8 0 15 -3 15 -6z m3460 2 c0 -2 3 -11 6 -20 4 -11 1 -16 -10 -16 -9 0 -16 2
-16 4 0 2 -3 11 -6 20 -4 11 -1 16 10 16 9 0 16 -2 16 -4z m-4245 -47 c0 -28
-23 -32 -39 -6 -8 14 -8 20 4 27 22 14 35 6 35 -21z m1025 2 c-13 -25 -27 -34
-41 -26 -13 9 18 45 38 45 10 0 11 -5 3 -19z m2821 -81 c39 -64 47 -90 29 -90
-5 0 -10 3 -10 8 0 4 -22 45 -50 91 -35 60 -43 79 -28 69 11 -8 38 -43 59 -78z
m-3493 58 c-4 -27 -28 -36 -28 -10 0 20 8 32 22 32 5 0 8 -10 6 -22z m3922 -7
c0 -10 7 -21 15 -25 22 -8 19 -38 -2 -34 -10 2 -17 10 -15 17 1 6 -4 19 -13
27 -19 20 -19 34 0 34 8 0 15 -9 15 -19z m-3320 -60 c-10 -20 -40 -29 -40 -13
0 5 10 19 22 32 24 26 36 13 18 -19z m-630 -1 c0 -11 -7 -20 -15 -20 -15 0
-21 21 -8 33 12 13 23 7 23 -13z m4136 5 c8 -20 -13 -45 -32 -38 -14 5 -19 34
-7 46 11 12 33 7 39 -8z m-137 -51 c10 -22 9 -25 -5 -22 -21 4 -39 48 -20 48
7 0 18 -12 25 -26z m-4019 -1 c0 -5 -5 -15 -10 -23 -7 -11 -12 -12 -21 -3 -6
6 -8 16 -5 22 8 12 36 15 36 4z m603 -9 c9 -10 -15 -54 -30 -54 -16 0 -17 14
-3 41 11 19 22 24 33 13z m2777 -33 c-1 -13 -3 -13 -15 3 -19 26 -19 42 0 26
8 -7 15 -20 15 -29z m854 -3 c14 -23 -3 -52 -33 -56 -42 -6 -67 38 -39 66 17
17 58 11 72 -10z m-4263 -20 c-10 -28 -31 -35 -31 -10 0 22 8 32 26 32 10 0
11 -6 5 -22z m4077 -3 c7 -14 12 -32 12 -40 0 -17 -19 -21 -21 -5 -1 6 -2 14
-3 19 0 5 -4 13 -8 17 -11 10 -10 34 0 34 5 0 14 -11 20 -25z m-629 -37 c5
-13 7 -25 4 -28 -5 -6 -33 30 -33 42 0 17 21 7 29 -14z m-2869 -1 c0 -19 -27
-53 -36 -45 -9 10 12 58 26 58 5 0 10 -6 10 -13z m-597 -28 c-7 -24 -33 -25
-33 -1 0 23 8 32 25 26 7 -3 11 -14 8 -25z m3691 15 c44 -6 46 -8 46 -39 0
-77 9 -92 65 -112 l53 -20 45 45 45 44 63 -42 c35 -24 66 -45 69 -47 2 -2 -10
-30 -27 -61 l-31 -57 43 -47 43 -48 48 15 c27 8 56 15 64 15 10 0 28 -27 47
-72 27 -61 30 -75 18 -83 -8 -5 -32 -23 -55 -38 -38 -27 -40 -30 -34 -70 3
-23 7 -47 9 -53 2 -5 31 -19 65 -29 l62 -19 -6 -59 c-3 -33 -6 -70 -6 -83 0
-21 -6 -24 -60 -30 -66 -7 -71 -11 -90 -72 l-13 -43 41 -42 c23 -24 42 -47 42
-53 0 -11 -69 -116 -83 -126 -6 -3 -34 5 -63 19 l-52 26 -45 -39 -44 -39 13
-39 c25 -70 20 -82 -46 -116 -33 -16 -63 -30 -68 -30 -5 0 -23 22 -40 50 l-31
50 -48 -6 c-60 -8 -68 -16 -86 -84 l-14 -55 -74 4 c-41 2 -77 8 -81 15 -4 6
-8 25 -8 43 0 58 -15 79 -65 93 l-46 13 -42 -42 c-24 -22 -46 -41 -50 -41 -7
0 -113 64 -126 76 -2 2 7 30 21 61 l25 58 -38 44 -37 44 -53 -21 c-28 -12 -56
-22 -60 -22 -5 0 -25 32 -45 72 l-36 72 23 19 c80 62 78 59 65 114 -6 28 -14
54 -18 58 -3 4 -30 12 -60 19 l-53 11 -3 74 c-2 43 2 79 8 85 6 6 34 13 62 16
55 5 58 9 78 77 13 42 13 42 -29 89 -23 26 -40 53 -37 60 10 25 80 114 91 114
5 0 30 -11 54 -25 l43 -25 47 42 c25 23 47 45 49 49 2 4 -3 34 -11 67 l-14 60
70 31 c77 34 81 33 118 -26 21 -34 22 -34 73 -28 60 8 71 20 81 83 4 26 9 50
12 55 5 9 64 9 127 1z m433 -46 c-3 -8 -6 -5 -6 6 -1 11 2 17 5 13 3 -3 4 -12
1 -19z m-4152 -18 c0 -7 -6 -15 -12 -17 -8 -3 -13 4 -13 17 0 13 5 20 13 18 6
-3 12 -11 12 -18z m578 -30 c-3 -10 -11 -25 -19 -31 -11 -9 -14 -7 -14 13 0
25 18 50 31 43 4 -3 5 -14 2 -25z m-591 -26 c-4 -23 -19 -40 -28 -31 -4 3 -3
18 0 32 8 30 33 28 28 -1z m-284 -1 c2 -8 -5 -13 -17 -13 -12 0 -21 6 -21 16
0 18 31 15 38 -3z m265 -49 c9 -10 -4 -34 -19 -34 -16 0 -16 2 -8 24 6 17 16
20 27 10z m577 1 c0 -3 -9 -32 -20 -64 -56 -166 -85 -408 -70 -586 7 -89 37
-252 55 -296 9 -23 -12 -34 -23 -12 -5 10 -20 63 -33 118 -21 89 -24 123 -24
305 1 170 4 221 22 300 32 145 63 240 79 240 8 0 14 -2 14 -5z m-846 -113
c-15 -22 -54 -22 -68 1 -9 15 -7 22 13 38 24 20 24 20 45 -1 16 -16 18 -24 10
-38z m256 38 c0 -11 -7 -20 -15 -20 -8 0 -15 9 -15 20 0 11 7 20 15 20 8 0 15
-9 15 -20z m-15 -55 c0 -10 -6 -20 -12 -22 -8 -3 -13 5 -13 22 0 17 5 25 13
23 6 -3 12 -13 12 -23z m195 -18 c0 -13 -7 -68 -15 -123 -34 -228 -8 -603 51
-741 20 -45 28 -93 17 -93 -15 0 -60 134 -89 259 -30 134 -40 326 -25 481 17
172 31 240 47 240 8 0 14 -10 14 -23z m-210 -42 c0 -16 -6 -25 -15 -25 -18 0
-18 5 -5 31 14 26 20 24 20 -6z m140 -17 c0 -25 -12 -58 -21 -58 -10 0 -12 53
-2 63 10 11 23 8 23 -5z m1744 -11 c21 -16 18 -55 -5 -70 -9 -5 -28 -7 -42 -3
-21 5 -27 12 -27 34 0 48 36 67 74 39z m-1888 -28 c10 -17 -13 -36 -27 -22
-12 12 -4 33 11 33 5 0 12 -5 16 -11z m4734 -4 c17 -20 5 -45 -20 -45 -11 0
-23 7 -26 15 -6 15 11 45 26 45 4 0 13 -7 20 -15z m-4610 -85 c0 -22 -4 -40
-10 -40 -5 0 -10 18 -10 40 0 22 5 40 10 40 6 0 10 -18 10 -40z m2147 -21 c62
-23 122 -109 123 -174 0 -17 7 -41 16 -54 15 -21 22 -22 93 -19 42 2 83 7 92
11 10 5 24 1 38 -10 19 -15 20 -21 9 -35 -11 -14 -28 -15 -131 -10 -109 7
-120 9 -136 31 -10 13 -21 48 -24 78 -7 66 -36 116 -81 137 -45 21 -74 20
-114 -4 -48 -29 -66 -79 -59 -162 7 -82 19 -106 62 -124 58 -24 116 -18 164
17 50 36 83 34 59 -4 -43 -65 -166 -89 -249 -47 l-41 21 -95 -62 c-79 -52
-103 -63 -146 -66 -40 -3 -60 1 -84 16 -54 34 -66 64 -71 165 -6 113 -24 148
-75 139 -38 -6 -60 13 -55 48 7 51 81 51 91 0 4 -18 14 -32 27 -36 39 -12 55
-53 56 -141 0 -92 16 -128 62 -145 45 -18 89 -3 175 59 l82 58 -4 90 c-3 94
10 146 47 188 37 41 112 57 169 35z m-1887 -163 c0 -131 13 -235 41 -339 30
-111 34 -140 19 -135 -37 12 -79 220 -87 426 -5 146 -4 162 11 162 14 0 16
-15 16 -114z m-270 69 c0 -19 -4 -35 -10 -35 -5 0 -10 16 -10 35 0 19 5 35 10
35 6 0 10 -16 10 -35z m0 -111 c0 -19 -4 -34 -10 -34 -5 0 -10 18 -10 41 0 24
4 38 10 34 6 -3 10 -22 10 -41z m1836 38 c36 -25 20 -82 -24 -82 -33 0 -52 16
-52 45 0 37 44 59 76 37z m-2211 -38 c19 -7 45 -55 45 -82 0 -54 -89 -83 -130
-42 -56 56 9 153 85 124z m385 -105 c0 -38 -24 -35 -28 4 -2 19 1 27 12 27 11
0 16 -10 16 -31z m10 -110 c0 -16 -4 -29 -9 -29 -9 0 -21 57 -13 65 11 10 22
-8 22 -36z m18 -102 c2 -15 -1 -27 -7 -27 -6 0 -11 3 -11 8 0 4 -3 18 -7 31
-4 18 -2 23 8 19 8 -2 15 -17 17 -31z m4570 22 c-2 -6 -8 -10 -13 -10 -5 0
-11 4 -13 10 -2 6 4 11 13 11 9 0 15 -5 13 -11z m-4408 -18 c0 -26 -17 -36
-36 -21 -11 10 -12 16 -3 26 17 20 39 17 39 -5z m-296 -67 c9 -8 16 -22 16
-29 0 -16 -27 -45 -41 -45 -24 0 -49 22 -49 43 0 44 43 62 74 31z m160 -30 c4
-15 4 -29 1 -32 -8 -8 -25 19 -25 41 0 26 17 20 24 -9z m4386 -43 c7 -15 5
-24 -8 -41 -16 -19 -22 -21 -40 -11 -24 13 -29 40 -10 59 18 18 46 14 58 -7z
m-3863 -73 c8 -51 9 -52 56 -67 45 -14 48 -14 70 7 33 31 50 28 91 -18 42 -47
43 -56 15 -86 -19 -20 -20 -27 -10 -55 20 -58 38 -77 81 -84 l40 -7 0 -68 0
-69 -37 -10 c-21 -6 -43 -11 -48 -11 -6 0 -18 -21 -27 -47 -17 -47 -17 -48 6
-78 l24 -30 -40 -47 c-22 -27 -44 -48 -50 -48 -5 0 -24 10 -40 22 -29 20 -34
20 -72 7 -41 -14 -47 -23 -61 -91 -5 -27 -7 -28 -75 -28 l-69 0 -7 46 c-7 48
-25 67 -76 79 -19 5 -36 1 -57 -14 -16 -12 -33 -21 -38 -21 -5 0 -28 20 -52
44 l-44 45 26 31 26 31 -17 47 c-16 42 -22 48 -65 60 l-47 13 0 69 0 68 38 7
c48 8 53 12 75 58 22 48 22 50 -9 86 l-25 31 43 46 44 47 41 -23 c38 -22 41
-23 79 -8 43 17 50 27 59 81 l6 37 69 0 68 0 9 -52z m-802 -213 c0 -35 -27
-55 -52 -39 -25 15 -28 42 -8 64 24 27 60 12 60 -25z m4825 14 c0 -5 -7 -9
-15 -9 -15 0 -20 12 -9 23 8 8 24 -1 24 -14z m-382 -70 c4 -31 -19 -44 -49
-29 -22 12 -24 31 -7 48 21 21 53 10 56 -19z m262 -103 c0 -3 -4 -8 -10 -11
-5 -3 -10 -1 -10 4 0 6 5 11 10 11 6 0 10 -2 10 -4z m-1237 -113 c-11 -32
-116 -154 -187 -219 -162 -146 -331 -251 -532 -328 -429 -166 -925 -130 -1327
95 -94 53 -207 135 -207 151 0 9 3 8 10 -2 5 -8 10 -12 10 -8 0 4 37 -17 83
-47 207 -135 446 -224 684 -256 120 -16 350 -6 486 21 134 26 281 77 406 140
183 91 307 186 471 358 58 60 106 110 107 111 1 1 0 -7 -4 -16z m303 -183
c-160 -237 -385 -441 -641 -583 -288 -160 -563 -235 -892 -244 -158 -5 -183
-4 -183 9 0 13 29 16 173 21 94 3 213 13 262 22 412 73 758 249 1038 529 87
87 208 235 257 315 23 37 36 49 43 42 8 -8 -9 -40 -57 -111z m582 90 c6 0 15
7 20 16 13 23 67 11 58 -13 -8 -21 11 -42 33 -36 24 6 34 -22 18 -48 -10 -17
-9 -22 6 -30 32 -19 17 -63 -23 -64 -8 0 -15 -9 -15 -21 -1 -12 -7 -29 -14
-38 -14 -17 -41 -22 -41 -7 0 17 -29 20 -45 5 -21 -21 -48 -14 -55 16 -5 18
-12 24 -27 23 -33 -4 -49 22 -32 53 11 21 11 27 0 33 -15 9 -11 57 4 54 25 -3
45 18 39 42 -5 20 -1 27 17 34 18 7 27 5 35 -5 6 -8 16 -14 22 -14z m-770 -38
c-53 -77 -266 -282 -368 -355 -167 -119 -563 -298 -593 -268 -14 14 -13 15 72
40 313 94 654 328 870 598 45 56 60 44 19 -15z m482 49 c0 -12 -20 -25 -27
-18 -7 7 6 27 18 27 5 0 9 -4 9 -9z m-3942 -44 c2 -11 -3 -17 -16 -17 -18 0
-20 6 -13 38 3 11 27 -7 29 -21z m3906 -2 c-4 -8 -11 -15 -16 -15 -6 0 -5 6 2
15 7 8 14 15 16 15 2 0 1 -7 -2 -15z m-34 -66 c0 8 2 12 5 9 3 -3 3 -13 -1
-22 -7 -19 -34 -22 -34 -3 0 21 13 29 22 15 6 -10 8 -10 8 1z m-30 -60 c0 -11
-28 -24 -36 -17 -2 3 -2 12 2 21 6 16 34 12 34 -4z m-37 -54 c-5 -16 -33 -21
-33 -7 0 13 22 32 31 26 5 -2 6 -11 2 -19z m-47 -64 c-22 -22 -41 -3 -20 20
13 15 19 16 25 7 5 -8 2 -19 -5 -27z m-3698 -9 c2 -14 -2 -22 -11 -22 -17 0
-30 27 -21 41 9 16 29 4 32 -19z m3662 -33 c-6 -10 -15 -19 -20 -19 -15 0 -12
38 3 43 20 7 28 -3 17 -24z m-2759 -28 c17 -13 23 -29 23 -56 0 -45 -31 -75
-77 -75 -66 0 -102 80 -57 128 26 28 79 29 111 3z m2719 -10 c0 -5 -6 -14 -14
-20 -16 -13 -32 2 -21 19 8 12 35 13 35 1z m228 -37 c2 -12 -4 -24 -12 -27
-19 -7 -40 18 -32 39 8 22 40 13 44 -12z m-268 -14 c0 -5 -9 -14 -20 -20 -15
-8 -20 -8 -20 3 0 8 3 17 7 20 10 10 33 8 33 -3z m-60 -75 c-23 -42 -37 -35
-16 8 11 22 22 35 24 28 2 -7 -1 -24 -8 -36z m-2901 1 c0 -7 -2 -6 -6 2 -2 6
-8 10 -12 8 -4 -3 -8 1 -8 9 0 11 4 12 14 4 7 -6 13 -17 12 -23z m2860 -6
c-19 -37 -49 -55 -49 -29 0 5 4 8 9 4 5 -3 13 5 17 17 8 27 23 48 35 48 5 0
-1 -18 -12 -40z m-2287 -40 c230 -114 424 -169 667 -190 63 -6 117 -13 120
-15 28 -29 -164 -19 -338 16 -137 27 -308 87 -440 153 -131 66 -173 91 -164
99 9 10 1 13 155 -63z m-960 33 c22 -20 23 -61 1 -85 -23 -25 -68 -23 -87 4
-21 29 -20 40 5 72 23 30 54 33 81 9z m3189 4 c-6 -8 -9 -17 -6 -21 3 -3 0 -2
-6 3 -12 10 -4 31 13 31 7 0 7 -4 -1 -13z m-2767 -19 c-4 -6 -1 -8 7 -6 8 3
23 -3 34 -12 45 -40 179 -132 223 -151 43 -20 66 -38 58 -47 -14 -13 -301 172
-291 188 3 5 0 7 -8 4 -15 -5 -30 10 -33 34 -1 6 2 10 7 6 5 -3 6 -10 3 -16z
m2896 18 c0 -3 -4 -8 -10 -11 -5 -3 -10 -1 -10 4 0 6 5 11 10 11 6 0 10 -2 10
-4z m-20 -30 c0 -3 -4 -8 -10 -11 -5 -3 -10 -1 -10 4 0 6 5 11 10 11 6 0 10
-2 10 -4z m-177 -22 c-12 -33 58 -48 76 -16 6 9 11 12 11 5 0 -6 2 -18 5 -25
4 -11 -4 -14 -38 -13 -24 1 -49 5 -55 9 -14 9 -16 56 -2 56 5 0 7 -7 3 -16z
m67 6 c0 -5 -7 -10 -15 -10 -8 0 -15 5 -15 10 0 6 7 10 15 10 8 0 15 -4 15
-10z m62 -2 c-10 -10 -7 -15 10 -25 23 -12 23 -12 2 -13 -25 0 -41 30 -22 42
19 12 24 10 10 -4z m-122 -67 c0 -14 -18 -23 -31 -15 -8 4 -7 9 2 15 18 11 29
11 29 0z m-39 -36 c-1 -15 -24 -12 -29 3 -3 9 2 13 12 10 10 -1 17 -7 17 -13z
m-48 -43 c-11 -8 -20 -9 -27 -2 -7 7 -3 15 9 24 15 11 22 11 27 3 4 -7 0 -18
-9 -25z m477 23 c37 -19 48 -57 26 -90 -22 -34 -87 -36 -110 -3 -22 32 -20 55
9 83 28 29 36 30 75 10z m-520 -45 c0 -13 -7 -20 -20 -20 -25 0 -26 16 -2 29
23 14 22 14 22 -9z m747 -6 c8 -20 -8 -36 -26 -25 -15 10 -8 41 9 41 6 0 13
-7 17 -16z m-2922 -30 c13 -9 29 -13 34 -10 5 4 13 1 17 -5 9 -15 95 -53 194
-85 75 -24 103 -44 62 -44 -44 0 -292 101 -354 144 l-22 16 22 0 c13 0 34 -7
47 -16z m2119 7 c3 -5 -1 -14 -8 -20 -16 -13 -32 2 -21 19 8 12 22 13 29 1z
m-54 -46 c0 -8 -9 -15 -20 -15 -20 0 -26 11 -13 23 12 13 33 7 33 -8z m-60
-30 c0 -8 -9 -15 -20 -15 -22 0 -27 15 -7 23 21 9 27 7 27 -8z m-2290 -26 c0
-5 -7 -6 -15 -3 -8 4 -15 13 -15 21 0 13 3 13 15 3 8 -7 15 -16 15 -21z m70
-5 c0 -9 -7 -14 -17 -12 -25 5 -28 28 -4 28 12 0 21 -6 21 -16z m208 -31 c2
-8 -5 -13 -17 -13 -21 0 -35 13 -24 24 10 10 36 3 41 -11z m54 -19 c21 -11 27
-19 20 -26 -12 -12 -62 14 -62 32 0 13 6 13 42 -6z m366 1 c2 -2 1 -8 -2 -13
-9 -14 -56 -2 -56 15 0 12 7 13 27 8 16 -4 30 -8 31 -10z m97 -26 c5 -5 -6 -9
-28 -9 -26 0 -37 4 -37 15 0 12 7 14 28 9 15 -4 31 -11 37 -15z m-385 -15 c0
-9 -7 -14 -17 -12 -25 5 -28 28 -4 28 12 0 21 -6 21 -16z m450 1 c0 -13 -4
-14 -20 -5 -11 6 -20 13 -20 15 0 3 9 5 20 5 11 0 20 -7 20 -15z m-380 -30 c0
-17 -2 -18 -24 -9 -23 9 -20 24 4 24 11 0 20 -7 20 -15z m50 -15 c0 -5 -7 -10
-15 -10 -8 0 -15 5 -15 10 0 6 7 10 15 10 8 0 15 -4 15 -10z m1530 -5 c0 -20
27 -19 38 1 13 22 60 8 64 -19 2 -17 9 -21 29 -19 33 3 69 -32 51 -50 -18 -18
-14 -35 8 -41 13 -3 20 -14 20 -30 0 -17 -7 -28 -20 -32 -20 -6 -29 -45 -10
-45 15 0 11 -23 -8 -46 -10 -12 -29 -21 -42 -20 -18 1 -26 -5 -28 -20 -2 -16
-12 -23 -33 -26 -18 -3 -29 0 -29 8 0 18 -38 24 -44 7 -10 -25 -59 -12 -66 17
-4 17 -13 25 -29 25 -33 0 -50 29 -33 55 14 23 8 40 -14 40 -9 0 -14 11 -14
35 0 26 4 35 16 35 13 0 15 7 10 31 -8 39 14 64 49 55 21 -5 25 -3 25 14 0 12
9 24 23 30 32 13 37 12 37 -5z m-1475 -15 c3 -5 -3 -10 -14 -10 -12 0 -21 5
-21 10 0 6 6 10 14 10 8 0 18 -4 21 -10z m73 -10 c6 0 12 -7 12 -15 0 -12 -7
-14 -27 -9 -36 9 -43 13 -43 26 0 6 10 8 23 4 12 -3 28 -6 35 -6z m1887 0 c9
-15 -4 -50 -19 -50 -20 0 -39 27 -32 45 6 17 42 20 51 5z m-1795 -36 c0 -16
-5 -16 -37 -8 -35 10 -29 31 7 26 17 -2 30 -10 30 -18z m1040 16 c0 -5 -9 -10
-20 -10 -11 0 -20 5 -20 10 0 6 9 10 20 10 11 0 20 -4 20 -10z m-62 -17 c2 -8
-6 -13 -22 -13 -25 0 -33 10 -19 24 10 10 36 3 41 -11z m-870 -9 c21 -6 13
-24 -10 -24 -38 0 -68 12 -68 26 0 13 33 12 78 -2z m2006 3 c25 -18 18 -67
-12 -78 -17 -6 -27 -4 -42 11 -25 25 -25 35 0 60 24 24 30 24 54 7z m-1194 -6
c0 -11 -26 -22 -34 -14 -12 12 -5 23 14 23 11 0 20 -4 20 -9z m-746 -7 c25 -9
19 -24 -9 -24 -24 0 -32 10 -18 23 8 8 8 8 27 1z m684 -6 c-3 -7 -11 -13 -18
-13 -7 0 -15 6 -17 13 -3 7 4 12 17 12 13 0 20 -5 18 -12z m-590 -15 c2 -9 -8
-13 -32 -13 -26 0 -36 4 -36 16 0 19 61 16 68 -3z m470 -1 c2 -7 -3 -12 -12
-12 -9 0 -16 7 -16 16 0 17 22 14 28 -4z m60 6 c-3 -7 -11 -13 -18 -13 -7 0
-15 6 -17 13 -3 7 4 12 17 12 13 0 20 -5 18 -12z m-450 -16 c3 -10 -4 -13 -24
-10 -15 2 -29 9 -32 16 -3 10 4 13 24 10 15 -2 29 -9 32 -16z m72 3 c11 -13 8
-15 -19 -15 -30 0 -39 9 -24 23 11 11 30 8 43 -8z m70 -6 c0 -5 -9 -9 -20 -9
-19 0 -26 11 -14 23 8 8 34 -3 34 -14z m130 6 c0 -12 -13 -15 -55 -15 -51 0
-65 7 -48 23 3 4 28 7 55 7 36 0 48 -4 48 -15z m68 3 c-7 -20 -48 -23 -48 -4
0 11 9 16 26 16 16 0 24 -5 22 -12z m-1003 -68 c0 -16 -6 -26 -18 -28 -19 -4
-32 20 -23 44 9 25 41 13 41 -16z m1132 -165 c32 -23 35 -54 8 -81 -28 -28
-51 -30 -77 -7 -25 23 -23 68 4 87 28 20 38 20 65 1z m-678 -24 c13 -24 -8
-55 -34 -50 -28 6 -42 34 -26 53 18 22 48 20 60 -3z m319 -104 c2 -12 -3 -17
-17 -17 -12 0 -21 6 -21 13 0 31 32 34 38 4z"/>
<path d="M3580 6507 c-34 -17 -70 -74 -70 -111 1 -100 117 -159 201 -103 48
32 68 91 48 143 -27 70 -113 104 -179 71z"/>
<path d="M4871 6230 c-116 -42 -197 -113 -250 -221 -63 -129 -65 -252 -5 -376
46 -97 113 -164 211 -211 74 -35 83 -37 179 -37 95 0 104 2 175 37 93 46 168
122 212 215 30 64 32 75 32 178 0 106 -1 113 -37 187 -54 114 -137 188 -256
229 -73 25 -189 25 -261 -1z m199 -143 c31 -16 70 -73 70 -104 0 -38 -37 -101
-70 -118 -99 -51 -212 41 -181 147 16 52 62 88 114 88 23 0 53 -6 67 -13z
m119 -300 c30 -15 61 -73 68 -127 l6 -40 -252 0 c-250 0 -251 0 -251 21 0 36
21 95 45 125 20 25 31 29 101 35 100 9 251 2 283 -14z"/>
<path d="M3329 5532 c-17 -20 -14 -42 6 -42 7 0 18 7 25 16 11 12 11 18 -1 29
-13 13 -17 13 -30 -3z m21 -12 c0 -5 -5 -10 -11 -10 -5 0 -7 5 -4 10 3 6 8 10
11 10 2 0 4 -4 4 -10z"/>
<path d="M5608 4529 c-67 -16 -160 -70 -215 -125 -170 -170 -171 -443 -2 -615
80 -82 164 -120 278 -127 147 -8 253 31 345 128 61 64 90 114 111 197 61 234
-81 476 -319 539 -57 15 -141 17 -198 3z m112 -224 c0 -40 2 -44 27 -47 41 -4
44 -38 4 -38 -23 0 -30 -5 -33 -22 -4 -29 -32 -30 -36 -1 -2 16 -11 23 -35 25
-44 4 -43 32 1 36 31 3 32 5 32 46 0 47 5 57 26 49 9 -3 14 -21 14 -48z m50
-211 c31 -6 41 -16 88 -95 50 -84 57 -110 29 -109 -7 1 -35 38 -63 83 l-51 82
-79 3 -80 3 -49 -86 c-47 -80 -66 -98 -80 -75 -3 5 19 53 51 105 l56 95 72 0
c39 0 87 -3 106 -6z m-50 -114 c0 -27 5 -43 15 -46 22 -9 18 -31 -9 -49 -21
-14 -26 -14 -55 2 -36 21 -40 39 -11 48 16 5 20 15 20 46 0 32 3 39 20 39 17
0 20 -7 20 -40z"/>
<path d="M2525 3406 c-64 -29 -100 -72 -121 -143 -55 -188 146 -345 324 -254
162 83 155 319 -12 397 -66 31 -126 31 -191 0z"/>
<path d="M6220 2930 c-24 -24 -24 -29 -4 -58 17 -24 53 -29 72 -10 19 19 15
66 -7 78 -28 14 -38 13 -61 -10z"/>
<path d="M4882 1907 c-43 -46 -13 -117 50 -117 61 0 90 76 45 118 -30 28 -68
28 -95 -1z"/>
</g>
</svg>
